# xmcd CD database file
#
# Track frame offsets:
#	150
#	12054
#	23521
#	35432
#	48773
#	60610
#	71848
#	83732
#	94300
#	105798
#	117632
#	130566
#	139019
#	151321
#	163754
#	174529
#	185479
#	195927
#	206407
#	216920
#	225934
#	238419
#	249215
#	261511
#	271643
#	282042
#
# Disc length: 3902 seconds
#
# Revision: 0
# Processed by: cddbd v1.5.2PL0 Copyright (c) Steve Scherf et al.
# Submitted via: CDex 1.70beta1
#
DISCID=570f3c1a
DTITLE=Hank Thompson and the Brazos Valley Boys - The Instrumentals
DYEAR=2005
DGENRE=Country
TTITLE0=Jersey Bounce
TTITLE1=Redskin Girl
TTITLE2=Summit Ridge Drive
TTITLE3=Wildwood Flower
TTITLE4=Woodchopper's Ball
TTITLE5=Johnson Rag
TTITLE6=Coconut Grove
TTITLE7=Across The Alley From The Alamo
TTITLE8=Orange Blossom Special
TTITLE9=Give The World A Smile
TTITLE10=String Of Pearls
TTITLE11=River Road Two Step
TTITLE12=Prosperity Special
TTITLE13=Dardanella
TTITLE14=Rose City Chimes
TTITLE15=Under The Double Eagle
TTITLE16=Westphalia Rag
TTITLE17=Panhandle Rag
TTITLE18=Tuxedo Junction
TTITLE19=Steel Guitar Rag
TTITLE20=Weeping Willow
TTITLE21=Sunrise Serenade
TTITLE22=Big Beaver
TTITLE23=Don't Be That Way
TTITLE24=Beaumont Rag
TTITLE25=Gathering Flowers
EXTD=YEAR: 2005
EXTT0=
EXTT1=
EXTT2=
EXTT3=
EXTT4=
EXTT5=
EXTT6=
EXTT7=
EXTT8=
EXTT9=
EXTT10=
EXTT11=
EXTT12=
EXTT13=
EXTT14=
EXTT15=
EXTT16=
EXTT17=
EXTT18=
EXTT19=
EXTT20=
EXTT21=
EXTT22=
EXTT23=
EXTT24=
EXTT25=
PLAYORDER=
